<?xml version="1.0" encoding="iso-8859-1"?>
<!-- Generator: Adobe Illustrator 19.0.0, SVG Export Plug-In . SVG Version: 6.00 Build 0)  -->
<svg version="1.1" id="Capa_1" xmlns="http://www.w3.org/2000/svg" xmlns:xlink="http://www.w3.org/1999/xlink" x="0px" y="0px"
	 viewBox="0 0 498.584 498.584" style="enable-background:new 0 0 498.584 498.584;" xml:space="preserve">
<g>
	<path style="fill:#FFA64D;" d="M394.584,105.292v-72h-232l-1.504,8h9.504c44.184,0,80,35.816,80,80v40h216v-56H394.584z"/>
	<polygon style="fill:#FFA64D;" points="282.584,337.292 298.584,393.292 274.584,393.292 274.584,465.292 402.584,465.292 
		402.584,337.292 	"/>
</g>
<g>
	<rect x="114.584" y="177.292" style="fill:#333333;" width="16" height="16"/>
	<rect x="178.584" y="177.292" style="fill:#333333;" width="16" height="16"/>
	<path style="fill:#333333;" d="M146.584,257.292h16c13.232,0,24-10.768,24-24h-16c0,4.416-3.584,8-8,8h-16c-4.416,0-8-3.584-8-8
		h-16C122.584,246.524,133.352,257.292,146.584,257.292z"/>
	<path style="fill:#333333;" d="M397.896,1.292H82.584v69.232c-19.144,9.608-32,29.352-32,51.552v79.216h0.296
		c0.144,17.664,14.544,32,32.24,32h1.352c4.168,18.128,15.128,33.696,30.112,43.768v5.904l-41.096,7.384
		c-26.864,4.832-49.056,24.92-56.52,51.184L0,401.292h82.584v96h416V101.98L397.896,1.292z M402.584,28.604l68.688,68.688h-68.688
		V28.604z M66.848,201.028c0-8.784,7.016-15.92,15.736-16.208v32.344c0,0.024,0,0.056,0,0.08
		C73.864,216.956,66.848,209.812,66.848,201.028z M82.584,147.308v21.504c-5.856,0.096-11.296,1.816-16,4.656v-51.384
		c0-19.832,14.12-37.056,33.568-40.944l3.832-0.768l4.008-7.992c7.112-14.248,21.424-23.088,37.344-23.088h25.248
		c39.704,0,72,32.296,72,72v52.032c-4.648-2.744-9.984-4.416-15.736-4.504v-26.712h-8c-16.512,0-27.064-5.312-32.24-16.24l-5-10.544
		l-8.032,8.48c-20.128,21.224-64.744,23.512-82.992,23.512h-8V147.308z M226.848,217.156v-32.344
		c8.72,0.288,15.736,7.424,15.736,16.216s-7.016,15.928-15.736,16.216C226.848,217.212,226.848,217.188,226.848,217.156z
		 M98.584,217.156V163.18c23.192-0.72,56.96-4.928,79.04-21.648c7.52,9.36,18.64,14.792,33.224,16.192v59.432
		c0,30.952-25.176,56.136-56.136,56.136S98.584,248.116,98.584,217.156z M257.144,385.292l-6.712-33.568l-15.688,3.144l6.08,30.424
		h-55.68l-6.064-30.32l8.016-12.016l11.976,4.672l18.04-45.112l14.544,2.288c21.624,3.4,39.392,19.224,45.24,40.32l11.168,40.168
		H257.144z M153.144,304.94l-22.56-19.328v-0.56c7.56,2.696,15.656,4.24,24.136,4.24c8.136,0,15.936-1.416,23.24-3.912
		L153.144,304.94z M142.752,317.1l-23.736,9.736l-10.6-26.504l12.2-2.192L142.752,317.1z M153.68,329.908l18.16,7.088l-5.536,8.296
		h-23.44l-5.728-8.6L153.68,329.908z M145.144,361.292h18.888l4.8,24h-28.488L145.144,361.292z M190.096,326.956l-26.104-10.192
		l23.912-18.84l12.992,2.048L190.096,326.956z M32.36,345.908c5.816-20.432,23.064-36.056,43.96-39.816l16.016-2.88l17.816,44.536
		l11.88-4.872l8.064,12.088l-6.072,30.328h-55.68l6.088-30.432l-15.688-3.136l-6.72,33.568H21.168L32.36,345.908z M98.584,481.292
		v-80h210.52l-16.792-60.448c-7.528-27.128-30.368-47.48-58.176-51.848l-39.936-6.288l0.224-5.384
		c15.2-10.064,26.336-25.728,30.544-44.024h1.352c17.696,0,32.088-14.336,32.24-32h0.024v-80.008c0-48.52-39.48-88-88-88h-25.248
		c-18.84,0-36,9.016-46.752,23.944V17.292h288v96h96v368H98.584z"/>
	<polygon style="fill:#333333;" points="346.584,413.98 320.24,387.636 308.928,398.948 346.584,436.604 464.24,318.948 
		452.928,307.636 	"/>
	<rect x="306.584" y="177.292" style="fill:#333333;" width="160" height="16"/>
	<rect x="274.584" y="177.292" style="fill:#333333;" width="16" height="16"/>
	<rect x="274.584" y="209.292" style="fill:#333333;" width="192" height="16"/>
	<rect x="274.584" y="241.292" style="fill:#333333;" width="192" height="16"/>
	<rect x="314.584" y="273.292" style="fill:#333333;" width="120" height="16"/>
	<rect x="450.584" y="273.292" style="fill:#333333;" width="16" height="16"/>
</g>
<g>
</g>
<g>
</g>
<g>
</g>
<g>
</g>
<g>
</g>
<g>
</g>
<g>
</g>
<g>
</g>
<g>
</g>
<g>
</g>
<g>
</g>
<g>
</g>
<g>
</g>
<g>
</g>
<g>
</g>
</svg>
